<?xml version="1.0" standalone="no"?>
<!DOCTYPE svg PUBLIC "-//W3C//DTD SVG 20010904//EN"
 "http://www.w3.org/TR/2001/REC-SVG-20010904/DTD/svg10.dtd">
<svg version="1.0" xmlns="http://www.w3.org/2000/svg"
 width="1966.000000pt" height="1966.000000pt" viewBox="0 0 1966.000000 1966.000000"
 preserveAspectRatio="xMidYMid meet">
<metadata>
Created by potrace 1.14, written by Peter Selinger 2001-2017
</metadata>
<g transform="translate(0.000000,1966.000000) scale(0.100000,-0.100000)"
fill="#000000" stroke="none">
<path d="M9739 17826 c-2 -2 -42 -7 -89 -10 -47 -3 -96 -8 -110 -11 -14 -3
-41 -8 -60 -11 -19 -3 -44 -7 -55 -9 -19 -3 -149 -33 -239 -54 -28 -7 -72 -4
-160 9 -66 10 -141 22 -166 25 -76 12 -659 8 -764 -5 -54 -6 -108 -14 -120
-16 -11 -2 -35 -6 -52 -8 -46 -7 -244 -45 -284 -56 -19 -5 -46 -11 -60 -13
-37 -7 -132 -34 -236 -68 -68 -22 -94 -36 -104 -53 -22 -42 -72 -52 -123 -24
-28 15 -31 16 -152 25 -128 10 -577 10 -675 0 -73 -7 -250 -32 -300 -42 -14
-3 -52 -10 -85 -16 -349 -62 -845 -255 -1164 -453 l-94 -59 26 -15 c86 -53 59
-272 -34 -272 -20 0 -37 11 -62 42 l-35 42 -29 -30 c-21 -21 -33 -46 -41 -89
-20 -95 -20 -104 -21 -211 l-1 -102 -32 3 c-18 1 -70 6 -116 10 -45 3 -93 8
-105 10 -12 2 -40 6 -62 10 -65 9 -113 27 -131 46 -16 18 -14 21 26 57 36 32
43 44 42 73 -1 35 -37 78 -68 80 -36 3 -53 2 -105 -5 -176 -23 -392 -113 -609
-254 -57 -37 -269 -193 -292 -215 -7 -6 -45 -39 -83 -72 -108 -92 -160 -141
-282 -262 l-112 -112 18 -55 c16 -48 16 -58 4 -76 -22 -31 -53 -44 -120 -46
l-63 -3 -148 -148 c-130 -129 -281 -273 -432 -412 -25 -23 -82 -66 -127 -97
-367 -250 -626 -628 -847 -1239 -20 -55 -61 -140 -90 -190 -251 -421 -324
-772 -214 -1034 l21 -52 123 7 123 7 -4 -27 c-3 -14 -7 -38 -10 -53 -26 -141
-25 -247 1 -291 26 -44 37 -45 80 -7 42 38 66 45 106 32 71 -23 58 -190 -20
-258 -44 -39 -86 -35 -134 10 -41 38 -49 38 -70 3 -22 -37 -16 -93 20 -198
l28 -81 -116 -17 c-108 -16 -163 -24 -184 -25 -11 -1 -2 -49 28 -141 97 -304
271 -595 526 -881 81 -90 76 -79 105 -229 30 -154 126 -392 219 -540 118 -189
325 -408 542 -573 158 -119 479 -294 714 -388 286 -114 649 -215 964 -270 60
-10 110 -20 111 -21 2 -2 12 -29 24 -61 28 -81 115 -207 210 -304 68 -70 81
-87 86 -125 18 -127 27 -173 42 -211 17 -43 17 -50 14 -203 -2 -71 3 -104 20
-155 34 -97 95 -192 188 -291 83 -88 247 -225 257 -215 3 3 30 -6 60 -20 47
-21 59 -23 88 -13 77 25 103 174 40 228 -23 20 -35 23 -76 20 -30 -3 -62 -14
-80 -28 l-31 -23 -23 28 c-34 43 -56 138 -62 268 -4 97 -2 117 9 113 8 -3 79
-7 159 -11 80 -3 159 -8 175 -10 147 -20 186 -28 227 -41 67 -22 74 -35 38
-69 -42 -41 -55 -84 -36 -128 19 -46 48 -61 116 -60 66 1 124 24 146 59 16 24
16 30 0 105 -16 73 -16 83 -2 104 9 14 24 29 35 34 41 22 208 29 458 20 l93
-4 7 -35 c14 -75 6 -213 -17 -273 -12 -32 -28 -61 -35 -63 -7 -3 -29 6 -50 20
-42 29 -53 31 -114 27 -11 0 -32 -17 -47 -36 -33 -44 -35 -124 -5 -183 30 -60
45 -67 130 -67 74 0 76 -1 97 -33 17 -24 22 -44 19 -76 -3 -43 -61 -206 -73
-206 -4 0 -34 -4 -67 -10 -33 -5 -79 -11 -102 -14 -24 -4 -61 -9 -84 -12 -92
-12 -196 -7 -228 12 -41 24 -44 36 -15 78 38 55 40 87 10 123 -60 71 -229 90
-271 30 -25 -35 -19 -89 13 -119 15 -14 36 -30 46 -36 18 -9 17 -11 -13 -26
l-32 -17 63 -48 c125 -95 260 -183 418 -274 44 -25 348 -177 355 -177 2 0 34
-14 70 -30 36 -17 71 -30 78 -30 7 0 17 -4 22 -9 30 -27 455 -144 640 -175
146 -25 159 -26 430 -31 143 -2 332 -7 420 -11 262 -10 333 -8 437 11 18 4
114 11 248 20 47 3 92 7 100 10 8 2 38 6 65 10 65 8 314 51 435 75 52 10 109
21 125 24 17 3 54 10 84 16 29 5 55 10 57 10 2 0 33 -59 69 -131 209 -417 452
-720 780 -969 76 -58 106 -89 127 -129 7 -14 15 -28 18 -31 5 -5 146 -238 166
-275 5 -11 85 -148 176 -305 216 -372 190 -324 388 -705 40 -77 73 -141 74
-142 6 -8 86 -15 221 -19 145 -3 164 -2 205 17 52 24 62 36 49 62 -6 10 -11
38 -12 62 -1 36 4 50 28 74 47 50 149 58 196 15 23 -21 24 -63 5 -128 -18 -59
-9 -89 35 -115 28 -17 74 -26 234 -45 22 -3 103 -5 179 -6 l139 0 -6 -75 c-7
-80 -24 -132 -50 -154 -14 -11 -23 -8 -67 24 -114 84 -205 43 -194 -88 5 -62
39 -142 72 -167 32 -25 88 -26 129 -1 30 19 32 19 48 1 34 -37 45 -107 41
-244 -3 -72 -10 -158 -16 -190 -13 -64 -48 -166 -57 -166 -3 0 -23 18 -43 40
-32 34 -43 40 -78 40 -69 0 -104 -52 -103 -153 1 -75 30 -143 68 -158 48 -19
208 -21 297 -4 44 9 96 18 114 21 83 14 156 74 180 149 10 34 9 205 -1 266
-14 77 -74 268 -171 539 -60 168 -122 326 -130 332 -6 4 -14 4 -18 2 -4 -3 -9
10 -9 28 -2 48 -7 85 -19 140 -5 27 -10 52 -10 55 0 9 70 -4 272 -51 l188 -43
-1 47 c-1 26 4 56 10 67 14 27 69 45 112 38 39 -7 109 -50 110 -68 0 -6 3 -24
5 -38 3 -16 -2 -31 -11 -39 -8 -7 -15 -18 -15 -25 0 -10 38 -14 168 -15 297
-2 441 -11 647 -40 95 -14 416 -5 535 15 122 20 355 66 485 96 50 11 101 22
115 25 60 12 266 69 398 110 276 87 520 206 752 368 47 33 87 62 90 65 3 3 34
31 70 61 82 68 189 181 263 275 122 155 195 315 222 485 3 24 21 52 54 86 98
103 155 213 176 344 3 19 11 61 17 93 13 69 6 147 -25 290 l-24 107 131 0
c191 1 308 8 426 26 114 17 135 20 165 28 11 3 51 12 88 21 73 16 199 56 257
82 242 107 362 183 548 350 133 119 313 338 388 471 91 162 144 266 174 342
12 30 28 69 35 85 58 138 128 371 170 565 66 303 106 676 107 995 1 270 -2
326 -14 330 -7 2 -30 6 -50 10 -21 3 -51 17 -68 31 -29 25 -29 26 -14 57 39
74 21 143 -46 177 -99 50 -195 4 -193 -92 1 -30 8 -48 32 -72 l32 -33 -50 -21
c-29 -13 -82 -24 -128 -28 -88 -7 -403 -8 -409 -1 -2 2 14 51 37 108 52 128
57 193 19 234 -23 24 -28 25 -90 20 -52 -5 -72 -2 -99 12 -45 24 -76 83 -75
147 1 41 5 53 29 74 37 32 86 25 131 -19 18 -17 39 -29 47 -26 23 9 49 75 50
130 1 57 -10 168 -19 192 -4 9 0 16 7 16 8 1 23 3 34 4 114 14 202 20 321 20
126 0 144 -2 163 -19 26 -24 26 -27 -4 -72 -31 -46 -27 -106 11 -144 21 -21
34 -25 84 -25 54 1 64 4 91 31 35 36 40 75 15 124 -9 18 -16 39 -16 46 0 19
38 41 83 49 l38 7 -6 57 c-15 160 -38 316 -76 517 -86 465 -255 882 -443 1091
-40 46 -54 74 -92 198 -130 430 -381 847 -629 1049 -22 18 -73 52 -113 76 -40
23 -75 46 -78 51 -5 9 -10 48 -19 166 -6 78 -8 90 -20 173 -31 205 -142 487
-272 689 -163 254 -407 512 -643 682 -41 29 -76 57 -78 61 -2 5 -8 8 -12 8 -5
0 -37 20 -72 44 -35 23 -96 62 -135 86 -49 28 -73 48 -73 61 0 10 -10 44 -21
75 l-22 58 -18 -23 c-27 -33 -24 -90 6 -135 l25 -37 -47 -21 c-44 -19 -58 -20
-208 -14 -144 6 -189 9 -290 21 -16 2 -40 4 -53 4 -23 1 -23 3 -21 91 2 110
15 170 44 206 25 31 13 35 105 -32 56 -41 116 -27 150 35 17 33 18 119 1 159
-27 64 -115 82 -170 36 -25 -21 -34 -24 -46 -14 -25 21 -38 80 -31 149 10 113
5 106 74 106 39 -1 58 3 54 10 -25 40 -134 192 -180 250 -82 103 -264 290
-352 361 -19 16 -42 35 -50 43 -30 29 -237 179 -320 233 -127 81 -386 228
-402 228 -3 0 -5 -10 -4 -22 1 -13 -4 -48 -11 -78 -18 -72 -15 -63 -46 -156
-59 -174 -63 -253 -14 -301 l24 -24 30 35 c32 35 78 64 101 60 6 -1 21 -2 32
-3 50 -3 61 -116 20 -204 -39 -83 -101 -109 -168 -70 -26 15 -32 15 -47 3 -24
-20 -51 -77 -69 -145 -20 -79 -16 -328 7 -398 27 -84 53 -98 99 -54 80 77 146
75 187 -5 22 -42 18 -156 -7 -204 -36 -70 -95 -75 -172 -14 -45 36 -69 36 -87
0 -17 -33 -16 -82 1 -147 8 -29 13 -53 13 -54 -4 -2 -216 -8 -263 -8 -82 0
-183 -20 -219 -44 -41 -26 -45 -54 -15 -112 27 -52 25 -90 -4 -120 -62 -62
-210 -52 -231 16 -11 35 3 83 32 104 56 42 58 47 29 72 -32 27 -81 41 -177 49
-41 4 -83 8 -94 9 -11 1 -54 3 -96 4 l-76 1 -5 73 c-5 83 -36 157 -74 178 -19
9 -32 10 -63 1 -65 -20 -116 -15 -150 13 -84 71 -49 195 56 195 16 0 46 -9 68
-20 47 -24 58 -17 81 52 15 46 15 96 1 158 -12 51 -20 84 -38 153 -25 103 -25
170 2 213 23 38 32 40 69 19 46 -26 85 -19 118 21 58 71 57 200 -3 252 -33 28
-91 26 -133 -5 -51 -37 -51 -36 -71 7 -28 64 -19 121 51 310 46 122 52 186 21
228 -27 36 -45 38 -103 9 -28 -14 -59 -23 -70 -20 -65 17 -101 163 -58 233 26
41 92 43 151 4 22 -14 44 -23 51 -21 14 6 41 85 54 158 l9 47 -106 25 c-58 14
-176 54 -262 90 -312 130 -674 230 -944 262 -27 3 -66 8 -85 10 -107 15 -189
18 -420 20 l-255 1 -120 58 c-161 77 -151 73 -225 100 -142 52 -431 127 -549
141 -30 4 -63 9 -75 12 -23 6 -591 14 -597 9z m-4491 -1233 c32 -15 52 -46 52
-79 0 -7 -17 -32 -37 -55 -42 -47 -39 -63 18 -91 54 -26 90 -30 319 -34 l215
-3 11 -49 c12 -54 11 -92 -7 -134 -13 -33 -19 -34 -61 -12 -48 25 -115 14
-150 -25 -53 -60 -49 -158 10 -197 25 -17 44 -22 81 -20 27 2 53 6 58 9 17 11
59 -29 81 -75 33 -71 47 -253 28 -348 -3 -14 -9 -38 -12 -55 -7 -31 -50 -135
-56 -135 -2 0 -20 8 -40 19 -69 35 -147 10 -174 -54 -25 -62 -15 -125 27 -164
29 -27 68 -27 114 0 27 16 39 19 49 10 27 -22 55 -107 61 -186 l7 -80 -108 0
c-237 0 -403 -22 -450 -61 l-29 -24 28 -21 c32 -24 37 -71 11 -108 -38 -53
-167 -87 -227 -60 -57 26 -56 101 2 153 60 54 -19 102 -199 122 -36 3 -74 8
-85 9 -11 1 -50 3 -87 4 l-68 1 0 53 c0 98 -38 183 -90 199 -8 3 -32 -1 -54
-8 -84 -30 -146 -11 -172 52 -48 115 39 189 165 138 22 -8 50 -14 62 -12 29 4
59 46 63 88 3 40 -21 139 -54 220 -52 129 -80 218 -80 256 0 64 49 107 80 69
20 -24 97 -65 124 -65 17 0 34 12 53 37 24 31 28 46 28 97 0 72 -17 119 -52
141 -48 32 -118 23 -152 -19 -8 -9 -17 -16 -22 -16 -18 0 -54 116 -63 207 l-4
41 201 0 c252 0 355 17 396 65 9 12 7 22 -14 52 -65 97 0 181 130 168 22 -3
55 -12 73 -20z m3147 -97 c50 -4 101 -9 115 -11 14 -2 50 -7 80 -10 62 -7 158
-30 195 -47 24 -11 34 -28 17 -28 -12 0 -38 -61 -37 -85 3 -65 38 -91 126 -94
76 -3 144 28 167 76 16 33 16 37 -5 73 l-21 39 32 14 c36 17 168 43 271 53 39
3 77 8 86 9 33 7 297 19 380 18 119 -1 188 -9 230 -27 55 -23 63 -37 44 -81
-31 -77 -12 -161 45 -190 16 -8 49 -15 74 -15 100 0 148 109 79 178 -12 12
-11 17 4 34 10 11 29 25 43 30 37 14 176 10 330 -10 l135 -17 23 -68 c26 -79
34 -165 19 -213 -11 -37 -32 -45 -41 -16 -4 10 -19 31 -35 46 -35 34 -91 38
-123 10 -32 -29 -59 -98 -59 -156 -1 -121 48 -160 164 -127 21 5 47 7 58 4 30
-10 53 -53 51 -94 -2 -27 -29 -156 -37 -168 0 -1 -46 4 -100 12 -258 36 -344
37 -384 7 -28 -21 -30 -46 -5 -93 44 -87 15 -129 -94 -137 -114 -8 -182 27
-182 94 0 28 6 38 30 52 16 9 30 20 30 24 0 4 -18 17 -40 28 -37 19 -54 20
-193 16 -83 -2 -159 -7 -167 -9 -8 -3 -42 -8 -75 -11 -105 -9 -179 -17 -210
-22 -16 -3 -100 -7 -186 -11 -141 -5 -160 -4 -188 13 -38 23 -39 37 -3 59 89
57 69 139 -42 166 -79 19 -167 7 -208 -28 -46 -41 -36 -124 23 -176 27 -25 29
-31 17 -43 -8 -8 -28 -18 -45 -23 -44 -13 -208 -5 -323 14 -14 3 -52 7 -85 11
-33 3 -63 8 -66 10 -17 10 -41 149 -37 210 3 53 9 69 30 91 l27 26 50 -21 c63
-28 95 -28 122 -1 67 67 67 233 0 269 -28 15 -94 12 -127 -5 -16 -8 -38 -15
-50 -15 -27 0 -61 61 -75 137 -12 60 -15 215 -6 230 3 5 18 8 34 7 15 -1 69
-5 118 -8z m3082 -682 c49 -24 67 -55 58 -101 -3 -21 -13 -48 -21 -61 -9 -13
-14 -35 -12 -50 7 -62 124 -88 413 -90 l150 -1 7 -26 c7 -26 11 -87 9 -135 -1
-14 -10 -40 -21 -58 l-20 -32 -46 35 c-56 43 -109 48 -142 12 -64 -68 8 -247
99 -247 17 0 48 9 69 19 51 24 74 18 95 -25 17 -35 15 -64 -6 -150 -10 -40
-14 -44 -43 -45 -17 0 -44 -2 -61 -4 -16 -1 -68 -5 -115 -8 -211 -15 -360 -47
-374 -82 -2 -7 8 -30 23 -51 38 -52 45 -80 31 -114 -24 -58 -152 -92 -226 -62
-56 24 -68 81 -33 162 12 27 19 56 16 64 -3 8 -25 25 -48 37 -36 18 -59 21
-138 21 -53 -1 -112 -3 -131 -6 -19 -3 -64 -8 -100 -11 -36 -3 -92 -10 -125
-14 -33 -5 -62 -7 -64 -5 -7 6 -5 113 3 175 8 67 37 119 66 119 11 0 44 -12
72 -26 50 -25 105 -33 128 -19 23 14 41 77 39 135 -4 96 -51 175 -109 181 -39
4 -56 -4 -96 -48 l-43 -47 -12 30 c-23 61 -15 152 27 276 13 42 19 48 39 44
13 -2 49 -8 81 -11 33 -4 68 -9 79 -12 11 -2 65 -6 120 -9 108 -7 167 4 207
35 22 18 22 21 9 53 -8 18 -16 52 -18 75 -4 35 -1 46 21 67 30 31 89 35 143
10z m-8734 -829 c74 -35 91 -98 38 -147 -40 -38 -39 -52 6 -73 31 -15 54 -17
149 -11 63 4 119 8 126 10 7 3 43 7 79 10 l66 6 8 -58 c16 -131 63 -282 88
-282 7 0 29 11 49 25 41 28 103 33 131 12 10 -7 24 -30 31 -51 34 -98 -35
-235 -110 -221 -10 2 -21 4 -24 4 -3 1 -18 12 -34 26 -38 32 -54 29 -78 -15
-23 -42 -19 -101 12 -204 12 -37 19 -70 16 -75 -3 -4 -55 0 -116 10 -298 47
-385 53 -432 28 -27 -14 -22 -43 11 -67 33 -24 48 -71 32 -101 -6 -11 -35 -31
-65 -46 -66 -32 -160 -38 -200 -11 -49 32 -46 96 5 144 l32 30 -26 17 c-38 24
-88 34 -165 30 -74 -4 -169 -14 -192 -20 -8 -2 -36 -6 -62 -10 -26 -3 -66 -9
-90 -13 -24 -4 -54 -8 -68 -7 -23 0 -25 3 -22 40 6 71 31 177 53 219 30 59 54
75 98 65 117 -26 204 81 150 187 -25 49 -106 58 -164 19 -20 -15 -39 -25 -40
-23 -15 16 -90 258 -82 264 1 1 92 4 202 8 110 3 231 11 270 16 80 12 152 43
157 68 3 9 -12 35 -33 58 -30 33 -36 48 -35 80 1 32 7 42 36 62 30 20 44 23
95 20 33 -2 77 -12 98 -23z m4047 -159 c19 -3 54 -8 78 -12 24 -4 53 -8 65 -9
12 -1 24 -3 27 -4 3 0 7 -27 8 -58 7 -128 55 -290 88 -300 6 -2 19 12 28 31
17 36 33 46 75 46 74 0 125 -103 99 -200 -19 -70 -64 -87 -141 -55 -34 14 -37
14 -58 -8 -43 -45 -82 -153 -96 -270 -21 -178 11 -357 63 -357 9 0 30 10 47
22 42 30 115 48 149 36 34 -12 62 -70 60 -126 -1 -63 -31 -114 -77 -131 -36
-14 -40 -13 -89 12 -63 33 -70 33 -95 1 -35 -44 -65 -165 -76 -299 0 -5 -9 -9
-20 -8 -274 27 -353 23 -396 -23 -20 -22 -21 -27 -10 -62 27 -81 -40 -150
-149 -155 -36 -1 -57 4 -77 19 -49 37 -41 119 17 167 38 32 53 62 37 74 -39
29 -143 37 -242 20 -16 -3 -50 -8 -75 -11 -25 -3 -56 -8 -70 -11 -84 -17 -154
-25 -161 -18 -17 17 -69 193 -69 232 0 44 31 88 53 75 7 -4 34 -23 61 -41 60
-41 106 -44 134 -8 42 53 52 188 18 253 -35 68 -94 80 -169 32 -26 -16 -49
-30 -51 -30 -12 0 -38 80 -38 116 1 42 36 159 73 239 49 110 58 168 34 215
-19 37 -46 45 -86 25 -46 -24 -96 -22 -126 7 -35 31 -64 99 -69 160 -3 43 0
56 18 75 36 38 92 29 150 -24 l26 -25 26 38 c30 47 53 140 62 254 4 47 8 87
10 89 9 9 216 -3 333 -20 111 -16 169 -50 129 -76 -29 -18 -51 -55 -55 -93 -4
-34 -1 -44 27 -71 30 -30 34 -31 94 -27 65 6 143 37 171 68 33 36 35 76 8 131
-30 60 -25 78 26 95 31 10 124 10 201 0z m956 -1500 c68 -31 91 -70 70 -118
-7 -18 -25 -44 -40 -57 -35 -32 -33 -57 6 -81 42 -26 134 -20 410 24 471 76
568 84 628 54 38 -20 40 -29 13 -65 -27 -35 -33 -86 -14 -121 31 -58 119 -91
190 -72 74 20 91 85 47 180 -31 67 -22 92 43 117 40 16 80 18 291 18 339 -1
586 -29 673 -78 40 -22 46 -37 22 -57 -8 -7 -17 -28 -21 -47 -18 -96 93 -168
187 -122 53 26 63 63 45 171 -18 103 14 119 246 126 l168 4 1 -58 c1 -33 1
-63 0 -67 -5 -28 34 -201 55 -244 29 -60 50 -67 67 -23 15 40 64 65 109 56 54
-10 83 -50 93 -130 18 -127 -43 -187 -150 -149 -53 18 -78 11 -100 -30 -14
-27 -17 -48 -12 -96 l5 -61 -146 -1 c-233 -2 -296 -11 -346 -50 -34 -27 -33
-48 9 -124 35 -61 35 -65 21 -98 -17 -42 -63 -61 -148 -59 -56 1 -102 17 -132
47 -25 25 -20 90 9 133 32 47 32 56 -7 84 -53 37 -149 32 -503 -28 -33 -6
-213 -40 -260 -49 -16 -4 -73 -9 -126 -12 -97 -6 -97 -6 -115 21 -17 26 -16
30 4 94 32 100 19 154 -43 171 -67 18 -154 -11 -186 -63 -23 -37 -25 -95 -4
-122 20 -27 19 -28 -20 -42 -60 -22 -174 -40 -310 -48 -49 -4 -93 -9 -97 -13
-3 -3 -9 -26 -13 -51 -11 -79 -32 -149 -60 -195 l-26 -45 -36 27 c-52 40 -125
40 -159 0 -45 -53 -27 -168 36 -229 38 -35 97 -38 141 -7 29 20 31 20 49 4 25
-23 56 -106 65 -173 6 -49 5 -52 -17 -53 -13 0 -32 -2 -43 -4 -30 -6 -94 -14
-155 -21 -30 -4 -57 -8 -60 -9 -7 -4 -146 -17 -220 -20 -33 -1 -67 4 -84 12
-25 13 -27 18 -20 46 13 54 8 116 -12 138 -63 70 -215 62 -254 -12 -23 -42 -7
-105 40 -155 23 -25 38 -49 34 -54 -28 -24 -92 -33 -270 -37 l-191 -4 -7 88
c-10 130 -41 237 -84 285 -14 17 -17 16 -49 -12 -18 -17 -42 -30 -52 -30 -72
0 -112 157 -65 255 24 51 93 68 129 31 6 -6 16 -23 22 -38 17 -37 27 -35 47
10 27 61 24 132 -16 302 -11 47 -22 94 -24 105 -20 88 -7 176 28 187 7 3 37
-4 67 -14 106 -37 158 3 149 113 -11 134 -96 188 -203 130 -43 -23 -49 -21
-70 19 -29 57 -54 249 -35 279 4 7 19 10 36 7 16 -3 61 -8 99 -12 39 -3 79 -8
90 -10 47 -10 266 -12 301 -3 22 6 50 19 64 29 23 18 24 21 11 52 -41 100 -39
148 7 172 37 20 112 12 178 -18z m8784 -828 c33 -20 40 -67 18 -110 -10 -21
-18 -45 -18 -55 0 -23 54 -59 105 -69 22 -4 47 -9 55 -10 39 -8 185 -24 274
-30 146 -9 140 -7 151 -66 15 -86 16 -104 4 -145 -16 -59 -33 -72 -62 -45 -65
61 -165 44 -185 -31 -19 -69 8 -164 56 -195 35 -23 83 -18 130 13 49 33 67 28
80 -19 10 -36 1 -82 -30 -151 -13 -30 -13 -30 -98 -31 -100 0 -308 -12 -365
-20 -108 -15 -143 -45 -97 -83 22 -17 27 -30 27 -65 0 -48 -20 -78 -68 -103
-56 -28 -128 -19 -148 19 -13 24 -13 92 0 135 9 31 8 32 -37 55 -42 21 -61 23
-177 22 -71 0 -171 -4 -221 -8 l-91 -8 -27 73 c-49 130 -53 192 -13 210 18 8
35 4 90 -25 75 -39 84 -41 121 -25 59 27 92 191 53 265 -33 64 -118 71 -169
14 -15 -16 -32 -30 -37 -30 -15 0 -59 99 -75 170 -23 97 -26 140 -13 140 7 0
82 -9 167 -20 194 -26 331 -28 383 -6 42 19 46 31 16 62 -32 34 -40 96 -18
134 10 16 20 30 21 30 2 0 21 7 43 15 45 16 123 13 155 -7z m-10674 -131 c13
-12 9 -278 -4 -322 -7 -22 -21 -51 -31 -65 l-19 -24 -49 22 c-65 30 -89 34
-128 17 -60 -24 -85 -97 -58 -164 26 -66 77 -78 150 -35 l45 26 24 -23 c42
-40 41 -126 -3 -247 -13 -36 -20 -42 -37 -38 -12 3 -43 8 -71 11 -27 4 -57 8
-65 10 -25 7 -121 16 -200 19 -86 4 -131 -11 -156 -50 -16 -24 -16 -29 -1 -78
21 -65 21 -89 2 -126 -35 -68 -180 -89 -226 -34 -21 25 -13 106 15 157 33 59
33 71 -6 101 -48 36 -121 45 -336 43 -186 -2 -192 -1 -193 18 0 11 -2 29 -4
40 -7 36 7 92 30 121 l22 28 28 -22 c41 -32 88 -29 114 7 50 69 43 194 -12
239 -17 14 -70 18 -117 8 -34 -7 -35 -6 -54 40 -15 38 -18 61 -13 128 4 44 13
103 20 131 l13 50 60 -2 c222 -9 452 -45 470 -74 3 -6 -8 -26 -26 -44 -34 -36
-45 -83 -27 -122 22 -49 137 -62 223 -24 93 42 108 74 70 157 l-25 54 26 20
c35 27 87 40 201 48 129 9 338 9 348 -1z m621 -659 c69 -20 91 -88 51 -157
-25 -44 -20 -64 21 -85 53 -28 417 -74 540 -69 23 1 23 0 18 -75 -7 -91 -20
-142 -46 -173 l-19 -24 -45 42 c-101 94 -195 57 -203 -79 -3 -62 11 -114 42
-155 37 -49 80 -46 140 9 45 41 45 41 64 22 34 -34 64 -134 76 -253 6 -59 5
-63 -12 -58 -11 4 -50 9 -89 13 -38 3 -72 7 -75 9 -3 2 -39 6 -80 10 -41 3
-88 9 -105 12 -61 10 -198 11 -226 1 -44 -15 -47 -48 -9 -101 17 -25 34 -62
37 -84 5 -36 2 -42 -23 -60 -41 -28 -130 -30 -188 -5 -60 27 -81 62 -77 126 0
11 19 36 41 57 40 38 40 39 21 58 -41 41 -197 59 -513 61 -36 0 -37 1 -44 47
-11 77 -8 128 11 156 20 31 32 33 62 12 11 -8 34 -16 51 -17 119 -9 155 235
40 276 -38 13 -95 -2 -133 -36 -41 -35 -56 -29 -76 29 -23 70 35 300 71 278 3
-1 28 -6 55 -9 28 -4 80 -12 117 -17 37 -6 72 -8 77 -5 5 4 12 2 15 -2 3 -5
44 -10 90 -11 67 -2 94 2 130 18 56 26 60 33 41 70 -33 65 -13 142 44 165 42
16 63 17 108 4z m8797 -9 c21 -6 49 -21 61 -35 29 -31 23 -66 -22 -120 -39
-48 -40 -55 -12 -80 18 -16 35 -19 123 -16 55 1 115 4 131 6 17 3 64 8 105 11
41 4 94 10 118 15 40 7 44 6 56 -19 27 -51 56 -155 56 -199 0 -40 -25 -102
-41 -102 -3 0 -23 14 -44 30 -69 55 -151 36 -189 -44 -30 -63 -13 -163 31
-187 35 -19 98 -13 140 12 l36 22 27 -30 c19 -21 33 -55 44 -101 24 -108 24
-112 -26 -113 -233 -6 -445 -32 -511 -64 -43 -20 -51 -40 -48 -121 1 -33 -3
-73 -8 -88 -23 -60 -143 -74 -188 -21 -31 35 -29 85 5 152 l27 55 -27 23 c-15
13 -51 28 -81 35 -64 13 -364 23 -370 13 -3 -5 -7 -40 -11 -78 -11 -120 -41
-231 -75 -275 -19 -23 -20 -24 -39 -7 -46 42 -125 40 -162 -5 -39 -48 -37
-199 3 -260 18 -26 31 -34 59 -36 32 -3 42 2 75 37 21 23 42 41 47 41 33 0 47
-105 26 -195 -12 -53 -18 -90 -26 -147 -4 -27 -12 -49 -18 -49 -50 -6 -329 25
-405 45 -29 7 -62 23 -74 34 l-20 21 26 34 c72 94 23 160 -118 159 -168 -1
-248 -119 -129 -192 l36 -23 -28 -18 c-15 -10 -46 -21 -68 -25 -23 -3 -50 -8
-61 -11 -11 -2 -83 -7 -161 -10 l-141 -6 -1 42 c-3 61 -37 219 -60 271 -31 72
-44 78 -83 36 -42 -46 -80 -48 -119 -6 -32 35 -54 110 -45 160 7 43 46 80 84
80 16 0 48 -7 72 -15 48 -17 47 -17 79 50 15 30 18 57 16 110 -4 64 -31 219
-42 237 -3 5 -24 6 -47 4 -23 -3 -73 -8 -112 -11 -69 -6 -86 -8 -155 -19 -77
-12 -111 -21 -162 -43 -54 -23 -58 -48 -14 -88 67 -62 39 -116 -65 -123 -75
-6 -132 12 -165 51 -28 33 -30 60 -9 101 18 33 14 41 -28 60 -73 34 -229 57
-476 71 -52 3 -97 8 -101 10 -12 8 10 119 33 164 32 63 45 69 117 49 76 -20
108 -11 143 40 69 102 43 222 -48 222 -39 0 -83 -21 -115 -55 -30 -32 -43 -32
-69 1 -26 33 -28 114 -5 217 15 68 26 91 42 93 40 3 161 17 177 20 47 9 255
16 288 10 19 -4 47 -16 61 -27 l26 -21 -29 -41 c-17 -23 -32 -58 -34 -77 -5
-39 14 -84 38 -94 49 -18 146 4 196 46 50 42 58 106 18 140 -20 17 -20 17 8
35 35 23 142 26 273 8 52 -7 118 -16 145 -20 28 -3 97 -13 155 -22 228 -33
397 -38 443 -14 41 22 40 38 -8 91 -61 69 -60 122 4 154 40 21 139 14 189 -14
63 -35 73 -82 32 -140 -41 -58 -12 -100 80 -117 56 -10 214 -17 385 -17 313 0
500 18 582 54 52 23 54 41 12 98 -40 54 -49 114 -23 143 11 12 28 25 39 30 29
11 104 11 149 -2z m-8514 -1824 c14 -3 45 -8 70 -11 25 -3 52 -7 60 -9 8 -2
38 -7 65 -11 28 -3 52 -8 54 -10 2 -2 -6 -38 -18 -82 -34 -128 -22 -241 27
-256 11 -4 44 2 73 14 138 52 208 -10 150 -135 -34 -75 -62 -86 -172 -71 -54
8 -57 7 -76 -21 -39 -55 -55 -137 -55 -281 0 -117 16 -219 44 -284 26 -61 52
-78 69 -46 7 13 23 34 37 47 21 19 33 22 64 18 47 -6 63 -19 90 -71 15 -29 22
-61 22 -108 1 -57 -2 -70 -24 -93 -22 -24 -30 -27 -75 -22 -27 3 -63 12 -80
21 -104 55 -142 -46 -76 -207 17 -43 31 -80 31 -84 0 -5 -89 2 -140 12 -12 2
-48 7 -81 10 -33 4 -70 8 -82 11 -12 2 -62 4 -110 5 -65 1 -94 -3 -112 -15
-31 -21 -31 -37 1 -91 53 -92 16 -155 -95 -163 -121 -9 -197 63 -157 148 9 19
25 49 36 66 20 31 20 31 0 56 -31 41 -96 53 -277 53 l-161 0 -17 60 c-17 63
-70 165 -85 165 -5 0 -20 -5 -34 -11 -64 -30 -135 25 -144 110 -3 40 0 52 20
76 21 23 32 28 74 28 32 0 61 -7 83 -21 41 -25 61 -18 85 32 30 63 22 115 -53
326 -44 124 -50 174 -26 220 20 38 54 46 105 26 107 -43 157 5 153 147 -3 84
-48 152 -108 161 -32 5 -71 -13 -85 -39 -19 -35 -26 -31 -45 20 -21 54 -16
125 16 232 11 33 27 38 184 59 28 3 53 8 56 9 3 2 54 7 115 10 94 5 114 4 143
-12 19 -10 36 -23 38 -29 2 -6 -12 -34 -32 -62 -47 -68 -51 -125 -11 -159 61
-52 205 -10 234 68 6 16 5 42 -5 79 -20 72 -19 91 9 113 20 16 36 17 113 13
50 -3 101 -8 115 -11z m2210 -663 c51 -25 62 -53 55 -145 -5 -77 -5 -79 23
-105 45 -42 122 -57 357 -67 39 -1 73 -3 78 -4 4 0 7 -13 7 -28 1 -61 46 -203
68 -217 6 -3 23 4 39 17 58 49 119 62 157 34 29 -21 32 -94 6 -150 -46 -99
-114 -123 -171 -62 -19 19 -38 35 -44 35 -5 0 -19 -13 -30 -28 -34 -47 -29
-128 23 -329 l18 -73 -45 -1 c-224 -7 -390 4 -440 29 -48 23 -51 50 -11 106
45 62 44 110 -3 151 -61 53 -174 66 -239 28 -62 -36 -57 -119 14 -206 17 -21
20 -32 12 -44 -20 -33 -84 -44 -270 -50 l-181 -6 -1 129 c0 133 -13 196 -49
236 -22 24 -41 23 -105 -7 -65 -30 -101 -32 -126 -4 -54 57 -36 217 29 263 32
22 87 20 128 -5 40 -24 55 -20 77 23 21 40 21 99 1 156 -8 23 -12 43 -8 43 3
1 16 3 27 4 12 1 26 5 33 9 6 4 11 2 11 -4 0 -6 3 -9 8 -7 4 3 43 8 87 11 70
6 154 17 235 31 14 2 42 12 63 22 34 15 37 20 32 42 -4 14 -13 33 -21 42 -8 9
-14 36 -14 62 0 37 5 49 26 66 33 26 95 27 144 3z m5057 7 c74 -28 90 -78 53
-165 -26 -59 -19 -81 33 -104 78 -34 220 -45 557 -45 293 1 356 9 409 53 l32
27 -19 45 c-33 79 -14 142 51 174 43 20 87 21 132 2 41 -17 41 -17 31 -107 -8
-70 4 -100 53 -127 51 -28 109 -35 331 -37 l195 -1 -3 -70 c-3 -78 -24 -157
-52 -194 l-19 -25 -25 24 c-17 16 -41 25 -74 29 -41 3 -53 0 -78 -21 -25 -22
-29 -32 -30 -79 -1 -66 20 -122 59 -154 35 -29 65 -30 117 -4 l40 20 19 -39
c36 -69 46 -220 27 -366 -8 -53 -42 -165 -56 -179 -5 -4 -21 6 -38 25 -56 62
-145 35 -167 -52 -14 -55 -9 -102 16 -151 22 -43 47 -53 117 -45 26 3 54 1 64
-4 42 -22 82 -127 87 -226 2 -52 2 -53 -26 -54 -15 0 -37 -2 -48 -4 -11 -2
-49 -7 -85 -10 -36 -4 -76 -8 -90 -11 -57 -9 -221 -16 -253 -10 -19 4 -47 18
-61 31 -22 20 -25 28 -16 44 12 24 13 82 1 114 -25 64 -158 94 -229 52 -67
-40 -65 -129 4 -182 19 -14 34 -31 34 -38 0 -20 -58 -42 -144 -55 -85 -13
-367 -19 -444 -10 l-46 5 2 55 c6 123 40 260 77 306 l22 28 28 -41 c57 -87
133 -61 173 58 58 170 -33 284 -159 199 -60 -40 -54 -48 -125 188 -2 7 -22 12
-51 13 -47 0 -77 3 -178 13 -99 10 -141 18 -192 38 -57 22 -66 40 -30 59 53
29 63 85 20 125 -57 53 -203 67 -262 25 -50 -36 -48 -111 4 -173 l27 -32 -23
-17 c-21 -15 -81 -33 -154 -44 -16 -3 -91 -8 -165 -11 l-135 -6 1 95 c2 142
-23 266 -60 296 -14 12 -20 11 -40 -8 -13 -13 -40 -26 -61 -31 -30 -7 -40 -4
-61 13 -45 39 -54 151 -17 224 42 84 114 95 156 22 12 -21 25 -39 30 -39 22 0
54 148 58 272 l2 67 35 -5 c19 -3 44 -8 56 -10 79 -17 222 -34 281 -34 74 0
110 12 131 45 11 17 9 26 -17 68 -60 97 -19 177 92 177 26 0 60 -5 76 -11z
m3702 -9 c76 -35 101 -80 83 -150 -10 -42 -8 -46 37 -70 40 -21 211 -44 401
-54 40 -3 39 -2 21 -74 -16 -63 -8 -118 22 -149 26 -29 31 -29 71 2 33 25 76
33 112 22 58 -20 95 -184 58 -262 -22 -48 -53 -54 -131 -27 -70 25 -87 22
-109 -20 -20 -38 -44 -151 -44 -206 l0 -44 -47 7 c-27 3 -57 8 -68 10 -49 11
-85 16 -160 21 -65 4 -87 2 -115 -13 -37 -19 -37 -18 -24 -105 6 -42 4 -49
-19 -71 -75 -69 -227 -52 -248 28 -10 36 11 88 45 110 21 14 24 21 16 36 -27
50 -166 74 -457 78 l-42 1 10 32 c14 51 11 88 -11 123 -28 45 -45 49 -88 20
-20 -14 -49 -25 -65 -25 -74 0 -124 137 -92 252 15 58 95 77 140 33 14 -14 25
-30 25 -35 0 -24 21 -6 38 34 18 40 54 167 55 192 0 7 39 11 116 12 146 1 223
9 284 28 64 21 74 43 47 100 -41 89 -39 143 8 168 37 21 79 19 131 -4z m-5671
-175 c13 -15 42 -158 42 -209 0 -56 -39 -132 -66 -128 -52 8 -114 5 -137 -7
-47 -25 -62 -102 -31 -168 29 -60 54 -69 173 -60 67 4 94 -76 64 -191 -8 -32
-18 -60 -21 -64 -4 -4 -36 -3 -72 2 -36 5 -85 12 -110 15 -25 3 -61 8 -80 10
-107 14 -216 15 -239 3 -43 -23 -48 -42 -23 -93 33 -67 29 -108 -10 -139 -41
-30 -94 -45 -144 -39 -72 7 -101 67 -64 130 27 47 25 60 -12 80 -28 15 -58 18
-183 18 -82 -1 -192 -4 -244 -8 -88 -7 -93 -7 -86 10 29 68 65 183 65 206 0
18 -11 39 -29 58 -33 32 -40 34 -91 18 -19 -5 -57 -13 -83 -16 -72 -8 -103 27
-114 130 -6 62 1 88 32 120 41 40 106 27 171 -35 18 -17 40 -28 50 -26 40 7
71 119 70 250 l-1 86 36 6 c152 24 361 28 397 8 l22 -13 -30 -25 c-22 -19 -30
-34 -30 -57 1 -79 55 -120 164 -121 83 -1 126 14 148 52 18 31 9 73 -25 109
-16 19 -18 25 -7 38 22 27 110 45 249 51 75 4 137 7 138 8 8 6 104 -1 111 -9z
m-1838 -661 c58 -17 110 -63 110 -96 0 -11 -16 -36 -35 -55 -19 -19 -35 -39
-35 -44 0 -5 11 -16 25 -25 25 -16 107 -19 245 -9 145 10 225 17 242 20 16 3
16 0 -3 -48 -31 -78 -42 -152 -29 -191 10 -30 55 -84 66 -79 89 50 136 62 190
47 64 -17 54 -176 -14 -220 -33 -22 -66 -20 -124 6 -56 24 -77 18 -100 -31
-17 -34 -15 -111 6 -194 18 -75 18 -83 0 -89 -11 -3 -73 -12 -139 -21 -237
-30 -318 -27 -357 13 -20 19 -20 20 1 39 52 49 39 114 -33 154 -31 17 -57 23
-109 23 -63 1 -71 -1 -93 -27 -26 -30 -31 -66 -13 -100 13 -24 57 -67 71 -67
4 0 8 -3 8 -8 0 -29 -161 -64 -366 -78 l-82 -6 -1 63 c-1 35 -3 71 -4 79 -20
98 -32 134 -57 174 -34 53 -44 55 -130 26 -45 -15 -65 -17 -85 -10 -30 12 -64
79 -65 128 0 38 20 92 42 109 25 22 84 23 121 3 30 -16 37 -17 55 -5 35 25 54
91 47 162 l-6 63 28 1 c15 1 42 3 58 4 17 2 64 6 105 10 177 14 291 38 328 70
l27 23 -48 44 c-35 34 -47 52 -47 74 0 37 8 49 45 68 38 20 87 20 155 0z
m7554 -795 c93 -26 109 -88 47 -175 -45 -63 -44 -87 2 -111 25 -12 50 -14 127
-10 52 4 106 9 120 11 145 26 243 37 250 30 13 -14 50 -174 50 -216 0 -22 -7
-53 -16 -71 -16 -29 -18 -30 -28 -13 -83 143 -225 81 -226 -99 0 -82 23 -127
71 -139 31 -8 47 -4 104 22 79 37 97 33 125 -31 16 -36 19 -60 15 -162 -2 -66
-8 -136 -13 -155 l-8 -35 -99 2 c-275 7 -399 25 -450 64 -22 18 -26 27 -20 53
19 91 18 117 -6 143 -52 55 -147 81 -197 54 -41 -22 -42 -105 -1 -162 l22 -32
-24 -18 c-44 -34 -143 -41 -329 -25 -36 3 -99 9 -140 12 -41 3 -78 9 -83 13
-11 11 -46 138 -53 192 -11 88 40 138 104 105 63 -33 122 -14 152 49 35 72 20
154 -33 176 -42 18 -94 15 -116 -5 -19 -17 -20 -17 -39 21 -29 57 -52 140 -58
214 l-6 66 78 -13 c250 -44 389 -52 446 -26 62 27 72 43 63 100 -18 112 -10
147 40 168 37 16 78 17 129 3z m-3711 -34 c38 -25 45 -60 18 -93 -12 -15 -27
-38 -33 -51 -11 -21 -9 -26 15 -47 44 -38 115 -53 327 -69 47 -4 86 -8 86 -9
1 0 4 -30 7 -66 7 -73 17 -111 41 -158 19 -37 28 -39 65 -13 42 30 106 31 139
3 46 -40 55 -120 19 -173 -29 -43 -82 -51 -126 -20 -38 27 -55 20 -79 -37 -18
-41 -23 -63 -37 -142 -12 -65 -16 -130 -9 -131 5 0 18 -2 29 -4 11 -2 38 -7
60 -10 22 -3 69 -10 105 -15 249 -38 362 -42 410 -13 39 23 38 34 -7 64 -44
29 -54 54 -39 99 29 90 207 94 248 4 9 -19 9 -35 -1 -67 -24 -81 -24 -91 3
-116 54 -51 120 -47 529 35 10 2 28 6 39 10 30 9 38 -11 38 -107 0 -122 -35
-219 -80 -219 -10 0 -34 7 -53 15 -71 30 -141 15 -170 -35 -33 -55 -16 -172
29 -211 47 -41 98 -31 149 29 l22 26 17 -31 c9 -18 16 -47 16 -65 0 -32 -15
-106 -22 -113 -2 -2 -53 -6 -113 -9 -381 -21 -431 -39 -381 -138 14 -27 22
-60 21 -79 -7 -85 -179 -146 -240 -84 -33 32 -32 66 4 140 34 74 29 96 -27
114 -38 13 -144 11 -232 -3 -116 -19 -348 -59 -359 -62 -27 -8 5 -233 45 -313
22 -45 38 -48 84 -16 66 46 141 39 173 -14 33 -57 15 -161 -32 -185 -34 -17
-67 -11 -113 20 -43 30 -64 29 -91 -8 -26 -35 -27 -137 -1 -248 3 -14 8 -44
11 -67 l6 -43 -180 5 c-198 5 -316 23 -347 54 -19 20 -19 20 6 30 31 12 58 47
58 76 0 96 -201 143 -268 63 -28 -34 -15 -116 25 -160 13 -14 13 -20 3 -33
-37 -45 -156 -41 -490 16 -143 24 -147 26 -152 47 -7 28 2 154 14 192 13 44
45 90 61 90 7 0 36 -18 66 -40 59 -45 107 -52 134 -22 41 45 54 139 28 204
-23 60 -107 81 -167 42 -24 -16 -24 -16 -39 19 -32 78 -31 114 19 377 16 84
12 153 -11 184 -26 36 -46 40 -91 16 -56 -29 -78 -31 -105 -10 -59 47 -66 221
-10 282 19 21 80 24 103 5 8 -7 23 -24 33 -39 24 -38 43 -35 66 10 28 55 43
143 47 269 3 129 -8 216 -38 285 -29 69 -49 77 -82 33 -21 -27 -34 -35 -57
-35 -82 0 -147 171 -99 260 23 44 96 37 161 -15 24 -19 50 -35 56 -35 26 0 65
119 80 240 3 25 7 52 8 60 3 19 29 18 166 -3 143 -23 206 -22 247 3 37 23 41
49 11 76 -51 46 -61 117 -21 156 48 49 196 62 255 23z m-3248 -946 c3 -4 -6
-51 -21 -105 -31 -114 -34 -186 -10 -233 23 -44 41 -48 73 -17 49 50 132 28
149 -39 10 -40 -1 -126 -21 -168 -29 -61 -78 -76 -159 -48 -36 12 -41 12 -54
-5 -30 -40 -50 -98 -51 -150 l-1 -32 -137 -7 c-76 -4 -147 -9 -158 -11 -11 -2
-40 -7 -65 -10 -49 -7 -100 -32 -100 -50 0 -6 11 -24 25 -40 54 -62 38 -137
-37 -175 -119 -61 -222 24 -158 129 11 18 20 36 20 40 0 14 -73 49 -125 60
-68 15 -107 20 -195 28 -67 6 -99 8 -191 13 -25 1 -25 1 -15 59 11 68 4 101
-28 139 l-24 27 -39 -27 c-52 -36 -88 -35 -124 4 -74 79 -48 285 38 291 39 3
73 -13 88 -42 45 -87 105 30 121 235 7 88 9 94 31 93 10 0 32 2 48 5 17 3 50
8 75 12 25 4 59 9 75 11 71 12 172 6 208 -11 43 -20 44 -26 15 -68 -24 -33
-32 -98 -16 -132 22 -48 96 -70 165 -50 89 27 120 105 68 175 l-25 34 21 22
c23 25 62 34 184 43 106 8 342 8 350 0z"/>
<path d="M14340 16774 c0 -35 29 -81 59 -93 57 -24 150 11 98 37 -97 48 -157
70 -157 56z"/>
<path d="M11218 2472 c16 -40 96 -171 101 -166 3 3 13 24 22 47 24 61 11 90
-53 116 -63 26 -80 27 -70 3z"/>
</g>
</svg>
